<svg width="61" height="33" viewBox="0 0 61 33" fill="none" xmlns="http://www.w3.org/2000/svg">
<rect x="1" y="1.25781" width="59" height="31" rx="3.5" fill="#E6E7E7"/>
<rect x="1" y="1.25781" width="59" height="31" rx="3.5" stroke="white"/>
<path d="M21.9219 21.895V17.5078H26.5648L27.063 18.1575L27.5776 17.5078H44.4304V21.5924C44.4304 21.5924 43.9897 21.8906 43.48 21.895H34.1482L33.5866 21.2034V21.895H31.7461V20.7145C31.7461 20.7145 31.4947 20.8792 30.9512 20.8792H30.3248V21.895H27.5382L27.0408 21.2314L26.5357 21.895H21.9219Z" fill="white"/>
<path d="M16.5 14.1999L17.547 11.7578H19.3577L19.9519 13.1258V11.7578H22.2027L22.5565 12.7465L22.8994 11.7578H33.0034V12.2549C33.0034 12.2549 33.5345 11.7578 34.4075 11.7578L37.6858 11.7693L38.2698 13.1193V11.7578H40.1534L40.6718 12.5333V11.7578H42.5728V16.145H40.6718L40.175 15.367V16.145H37.4075L37.1292 15.4534H36.3852L36.1115 16.145H34.2347C33.4835 16.145 33.0034 15.6581 33.0034 15.6581V16.145H30.1736L29.612 15.4534V16.145H19.0895L18.8113 15.4534H18.0697L17.7936 16.145H16.5V14.1999Z" fill="white"/>
<path d="M17.9176 12.2969L16.5054 15.5819H17.4248L17.6853 14.9241H19.2001L19.4593 15.5819H20.399L18.9882 12.2969H17.9176ZM18.44 13.0614L18.9018 14.2109H17.977L18.44 13.0614Z" fill="#016FD0"/>
<path d="M20.4961 15.5819V12.2969L21.8026 12.3017L22.5625 14.4197L23.3043 12.2969H24.6003V15.5819H23.7795V13.1613L22.9094 15.5819H22.1895L21.3169 13.1613V15.5819H20.4961Z" fill="#016FD0"/>
<path d="M25.1621 15.5819V12.2969H27.8407V13.0317H25.9916V13.5936H27.7975V14.2852H25.9916V14.8687H27.8407V15.5819H25.1621Z" fill="#016FD0"/>
<path d="M28.3159 12.2969V15.5819H29.1368V14.4148H29.4824L30.4666 15.5819H31.4697L30.3896 14.3716C30.8329 14.3342 31.2901 13.9536 31.2901 13.3626C31.2901 12.6713 30.7478 12.2969 30.1426 12.2969H28.3159ZM29.1368 13.0317H30.0751C30.3002 13.0317 30.4639 13.2078 30.4639 13.3775C30.4639 13.5957 30.2517 13.7233 30.0872 13.7233H29.1368V13.0317Z" fill="#016FD0"/>
<path d="M32.4631 15.5819H31.625V12.2969H32.4631V15.5819Z" fill="#016FD0"/>
<path d="M34.4505 15.5819H34.2696C33.3942 15.5819 32.8628 14.8919 32.8628 13.9529C32.8628 12.9906 33.3883 12.2969 34.4937 12.2969H35.4009V13.0749H34.4605C34.0118 13.0749 33.6944 13.4253 33.6944 13.961C33.6944 14.5972 34.0573 14.8644 34.5801 14.8644H34.7961L34.4505 15.5819Z" fill="#016FD0"/>
<path d="M36.2369 12.2969L34.8247 15.5819H35.7441L36.0047 14.9241H37.5195L37.7787 15.5819H38.7183L37.3075 12.2969H36.2369ZM36.7594 13.0614L37.2211 14.2109H36.2963L36.7594 13.0614Z" fill="#016FD0"/>
<path d="M38.814 15.5819V12.2969H39.8576L41.1901 14.3608V12.2969H42.011V15.5819H41.0011L39.6348 13.4639V15.5819H38.814Z" fill="#016FD0"/>
<path d="M22.4834 21.3319V18.0469H25.162V18.7817H23.3129V19.3436H25.1188V20.0352H23.3129V20.6187H25.162V21.3319H22.4834Z" fill="#016FD0"/>
<path d="M35.6084 21.3319V18.0469H38.287V18.7817H36.4379V19.3436H38.2351V20.0352H36.4379V20.6187H38.287V21.3319H35.6084Z" fill="#016FD0"/>
<path d="M25.2659 21.3319L26.5701 19.7096L25.2349 18.0469H26.269L27.0642 19.0748L27.8621 18.0469H28.8558L27.5381 19.6894L28.8447 21.3319H27.8107L27.0386 20.3202L26.2852 21.3319H25.2659Z" fill="#016FD0"/>
<path d="M28.9424 18.0469V21.3319H29.7848V20.2945H30.6489C31.38 20.2945 31.9342 19.9064 31.9342 19.1518C31.9342 18.5266 31.4995 18.0469 30.7555 18.0469H28.9424ZM29.7848 18.7898H30.6948C30.931 18.7898 31.0998 18.9346 31.0998 19.168C31.0998 19.3872 30.9318 19.5462 30.6921 19.5462H29.7848V18.7898Z" fill="#016FD0"/>
<path d="M32.2905 18.0469V21.3319H33.1114V20.1648H33.457L34.4412 21.3319H35.4443L34.3643 20.1216C34.8075 20.0842 35.2648 19.7036 35.2648 19.1126C35.2648 18.4213 34.7224 18.0469 34.1172 18.0469H32.2905ZM33.1114 18.7817H34.0497C34.2748 18.7817 34.4385 18.9578 34.4385 19.1275C34.4385 19.3457 34.2264 19.4733 34.0618 19.4733H33.1114V18.7817Z" fill="#016FD0"/>
<path d="M38.6672 21.3319V20.6187H40.31C40.5531 20.6187 40.6583 20.4873 40.6583 20.3431C40.6583 20.205 40.5534 20.0654 40.31 20.0654H39.5676C38.9224 20.0654 38.563 19.6721 38.563 19.0815C38.563 18.5548 38.8921 18.0469 39.851 18.0469H41.4495L41.1038 18.786H39.7214C39.4571 18.786 39.3757 18.9247 39.3757 19.0572C39.3757 19.1934 39.4763 19.3436 39.6782 19.3436H40.4558C41.1751 19.3436 41.4873 19.7518 41.4873 20.2864C41.4873 20.8611 41.1394 21.3319 40.4166 21.3319H38.6672Z" fill="#016FD0"/>
<path d="M41.6799 21.3319V20.6187H43.3227C43.5658 20.6187 43.671 20.4873 43.671 20.3431C43.671 20.205 43.5661 20.0654 43.3227 20.0654H42.5803C41.9351 20.0654 41.5757 19.6721 41.5757 19.0815C41.5757 18.5548 41.9048 18.0469 42.8637 18.0469H44.4622L44.1165 18.786H42.7341C42.4698 18.786 42.3884 18.9247 42.3884 19.0572C42.3884 19.1934 42.489 19.3436 42.6909 19.3436H43.4685C44.1878 19.3436 44.5 19.7518 44.5 20.2864C44.5 20.8611 44.1521 21.3319 43.4293 21.3319H41.6799Z" fill="#016FD0"/>
</svg>
