<svg width="128" height="49" viewBox="0 0 128 49" fill="none" xmlns="http://www.w3.org/2000/svg">
<g clip-path="url(#clip0_5219_3031)">
<path d="M117.849 0.757968H10.6817C10.2911 0.757968 9.90515 0.757969 9.51554 0.760369C9.18941 0.762769 8.86587 0.76974 8.53661 0.775608C7.82129 0.785091 7.10765 0.85598 6.4019 0.98766C5.69714 1.12221 5.01445 1.37587 4.37694 1.74006C3.7402 2.10733 3.15839 2.58457 2.65262 3.15445C2.1442 3.72273 1.72039 4.37959 1.39749 5.09976C1.0737 5.8185 0.849185 6.58869 0.731695 7.38374C0.613088 8.17779 0.549264 8.98099 0.540797 9.78614C0.530911 10.1541 0.529867 10.5232 0.524658 10.8912V38.6283C0.529867 39.0009 0.530911 39.3618 0.540797 39.7346C0.549267 40.5397 0.61309 41.3428 0.731695 42.1368C0.84886 42.9324 1.07339 43.703 1.39749 44.422C1.72025 45.1398 2.14411 45.794 2.65262 46.3592C3.15647 46.9316 3.73866 47.4091 4.37694 47.7736C5.01445 48.1388 5.69706 48.3939 6.4019 48.5306C7.10777 48.6612 7.82134 48.7321 8.53661 48.7427C8.86587 48.7509 9.18941 48.7556 9.51554 48.7556C9.90514 48.758 10.2911 48.758 10.6817 48.758H117.849C118.232 48.758 118.621 48.758 119.003 48.7556C119.328 48.7556 119.661 48.7509 119.986 48.7427C120.699 48.7327 121.412 48.6618 122.116 48.5306C122.823 48.393 123.508 48.1379 124.149 47.7736C124.787 47.4089 125.368 46.9314 125.872 46.3592C126.379 45.7918 126.804 45.1381 127.13 44.422C127.452 43.7025 127.674 42.9319 127.79 42.1368C127.909 41.3427 127.975 40.5397 127.988 39.7346C127.992 39.3618 127.992 39.0009 127.992 38.6283C128 38.1923 128 37.7588 128 37.3157V12.2013C128 11.7619 128 11.3259 127.992 10.8912C127.992 10.5232 127.992 10.1541 127.988 9.7861C127.975 8.98088 127.909 8.17785 127.79 7.3837C127.674 6.58911 127.452 5.81897 127.13 5.09971C126.473 3.6562 125.43 2.4812 124.149 1.73995C123.508 1.37665 122.823 1.12306 122.116 0.987552C121.412 0.855292 120.7 0.784378 119.986 0.77544C119.661 0.769584 119.328 0.762552 119.003 0.760212C118.621 0.757812 118.232 0.757812 117.849 0.757812V0.757968Z" fill="black"/>
<path d="M9.52068 47.7086C9.19611 47.7086 8.87938 47.7039 8.55736 47.6958C7.89026 47.686 7.22472 47.6205 6.56621 47.5C5.95217 47.3809 5.35733 47.1593 4.80132 46.8426C4.2504 46.5284 3.74792 46.1165 3.31313 45.6226C2.87204 45.1346 2.50481 44.5685 2.226 43.9468C1.94412 43.3211 1.74904 42.6505 1.64755 41.9582C1.53796 41.2143 1.47867 40.4622 1.47019 39.7082C1.46343 39.4551 1.45459 38.6125 1.45459 38.6125V10.8918C1.45459 10.8918 1.46401 10.0621 1.47024 9.81835C1.47836 9.06557 1.53731 8.31458 1.64657 7.57187C1.74824 6.87769 1.94347 6.20509 2.22551 5.57735C2.5033 4.95613 2.86848 4.38963 3.30692 3.89981C3.74485 3.40534 4.24894 2.99132 4.8008 2.67285C5.35553 2.35711 5.94924 2.13707 6.56204 2.02012C7.22272 1.8984 7.89057 1.83259 8.55998 1.82325L9.5212 1.80859H118.998L119.971 1.82383C120.634 1.83271 121.296 1.89793 121.951 2.01894C122.57 2.13736 123.17 2.35893 123.731 2.67636C124.836 3.31818 125.736 4.33359 126.303 5.58028C126.581 6.20369 126.773 6.8708 126.873 7.55898C126.984 8.30778 127.046 9.06468 127.059 9.82364C127.062 10.1635 127.062 10.5285 127.062 10.8918C127.07 11.3418 127.07 11.7701 127.07 12.202V37.3164C127.07 37.7523 127.07 38.1777 127.062 38.6066C127.062 38.9968 127.062 39.3543 127.057 39.7222C127.045 40.4677 126.984 41.211 126.875 41.9464C126.776 42.6437 126.582 43.3196 126.3 43.9504C126.019 44.5653 125.654 45.1265 125.218 45.6133C124.783 46.1098 124.28 46.5241 123.728 46.8403C123.168 47.1595 122.569 47.3819 121.951 47.5C121.292 47.6212 120.627 47.6866 119.959 47.6958C119.647 47.7039 119.321 47.7086 119.003 47.7086L117.849 47.711L9.52068 47.7086Z" fill="white"/>
<path d="M27.1531 24.6266C27.165 23.5851 27.4106 22.5638 27.8671 21.6579C28.3235 20.752 28.9759 19.9909 29.7637 19.4454C29.2632 18.6403 28.6031 17.9777 27.8356 17.5103C27.0681 17.0429 26.2144 16.7836 25.3423 16.7528C23.4821 16.5329 21.6787 18.0068 20.7308 18.0068C19.7645 18.0068 18.305 16.7747 16.7333 16.8111C15.7168 16.8481 14.726 17.1811 13.8577 17.7777C12.9893 18.3742 12.2729 19.214 11.7783 20.2151C9.63594 24.3935 11.234 30.5344 13.2862 33.9119C14.313 35.5658 15.5131 37.4132 17.0833 37.3477C18.6199 37.2759 19.1937 36.244 21.0485 36.244C22.886 36.244 23.4244 37.3477 25.0265 37.3061C26.6753 37.2759 27.7141 35.6449 28.7049 33.9753C29.4427 32.7969 30.0104 31.4944 30.387 30.1163C29.4291 29.6599 28.6116 28.8959 28.0365 27.9197C27.4615 26.9435 27.1542 25.7982 27.1531 24.6266Z" fill="black"/>
<path d="M24.1271 14.5316C25.0261 13.316 25.469 11.7534 25.3617 10.1758C23.9883 10.3383 22.7196 11.0777 21.8085 12.2468C21.363 12.8179 21.0218 13.4823 20.8044 14.202C20.587 14.9218 20.4977 15.6827 20.5415 16.4414C21.2285 16.4493 21.9081 16.2816 22.5292 15.9508C23.1503 15.62 23.6966 15.1348 24.1271 14.5316Z" fill="black"/>
<path d="M45.5878 33.3309H40.5454L39.3345 37.3586H37.1987L41.9748 22.457H44.1938L48.9698 37.3586H46.7977L45.5878 33.3309ZM41.0676 31.4723H45.0646L43.0942 24.9356H43.039L41.0676 31.4723Z" fill="black"/>
<path d="M59.2845 31.9235C59.2845 35.2997 57.6804 37.4688 55.2596 37.4688C54.6463 37.5049 54.0365 37.3458 53.4998 37.0096C52.9631 36.6735 52.5213 36.1739 52.225 35.568H52.1792V40.9493H50.1995V26.4907H52.1157V28.2977H52.1521C52.4621 27.6948 52.9113 27.1977 53.4521 26.8595C53.9929 26.5213 54.6049 26.3545 55.2231 26.377C57.671 26.377 59.2845 28.5567 59.2845 31.9235ZM57.2497 31.9235C57.2497 29.7239 56.2406 28.2778 54.7009 28.2778C53.1883 28.2778 52.1709 29.7544 52.1709 31.9235C52.1709 34.1126 53.1883 35.5786 54.7009 35.5786C56.2406 35.5786 57.2496 34.143 57.2496 31.9235H57.2497Z" fill="black"/>
<path d="M69.9003 31.9235C69.9003 35.2997 68.2956 37.4688 65.8748 37.4688C65.2616 37.5049 64.6517 37.3458 64.115 37.0096C63.5783 36.6735 63.1365 36.1739 62.8402 35.568H62.7944V40.9493H60.8147V26.4907H62.7309V28.2977H62.7674C63.0773 27.6948 63.5266 27.1977 64.0673 26.8595C64.6081 26.5213 65.2201 26.3545 65.8384 26.377C68.2862 26.377 69.9003 28.5567 69.9003 31.9235ZM67.8649 31.9235C67.8649 29.7239 66.8558 28.2778 65.3162 28.2778C63.8035 28.2778 62.7861 29.7544 62.7861 31.9235C62.7861 34.1126 63.8035 35.5786 65.3162 35.5786C66.8558 35.5786 67.8649 34.143 67.8649 31.9235Z" fill="black"/>
<path d="M76.9151 33.2051C77.0618 34.6829 78.3362 35.6531 80.0777 35.6531C81.7463 35.6531 82.9468 34.6828 82.9468 33.3504C82.9468 32.1938 82.2228 31.5012 80.5084 31.0266L78.7939 30.5613C76.3648 29.9004 75.2371 28.6207 75.2371 26.5441C75.2371 23.973 77.2262 22.207 80.0496 22.207C82.8459 22.207 84.7622 23.973 84.8267 26.5441H82.8282C82.7086 25.057 81.6173 24.1594 80.0225 24.1594C78.4277 24.1594 77.3364 25.0676 77.3364 26.3895C77.3364 27.443 78.0335 28.0629 79.7385 28.5375L81.196 28.9406C83.9101 29.6636 85.0368 30.8918 85.0368 33.0714C85.0368 35.8593 83.0665 37.6054 79.9309 37.6054C76.9973 37.6054 75.0165 35.9003 74.8885 33.205L76.9151 33.2051Z" fill="black"/>
<path d="M89.3116 23.9219V26.493H91.1456V28.259H89.3116V34.2484C89.3116 35.1789 89.6788 35.6125 90.485 35.6125C90.7028 35.6082 90.9202 35.591 91.1363 35.5609V37.3164C90.7738 37.3927 90.4054 37.4272 90.0367 37.4195C88.084 37.4195 87.3225 36.5933 87.3225 34.4863V28.259H85.9202V26.493H87.3225V23.9219H89.3116Z" fill="black"/>
<path d="M92.2067 31.9258C92.2067 28.5074 93.9939 26.3594 96.7809 26.3594C99.5773 26.3594 101.356 28.5074 101.356 31.9258C101.356 35.3535 99.5866 37.4922 96.7809 37.4922C93.9762 37.4922 92.2067 35.3535 92.2067 31.9258ZM99.339 31.9258C99.339 29.5809 98.3851 28.1969 96.7809 28.1969C95.1767 28.1969 94.2228 29.5914 94.2228 31.9258C94.2228 34.2801 95.1767 35.6535 96.7809 35.6535C98.3851 35.6535 99.339 34.2801 99.339 31.9258H99.339Z" fill="black"/>
<path d="M102.989 26.4906H104.877V28.3398H104.923C105.05 27.7622 105.351 27.2518 105.773 26.8944C106.196 26.5369 106.714 26.3542 107.242 26.3769C107.471 26.376 107.698 26.4039 107.921 26.4601V28.546C107.633 28.4469 107.332 28.4014 107.031 28.4113C106.744 28.3981 106.457 28.4553 106.191 28.5787C105.925 28.7022 105.685 28.8891 105.489 29.1265C105.293 29.364 105.145 29.6464 105.055 29.9544C104.965 30.2624 104.936 30.5887 104.968 30.9109V37.355H102.989L102.989 26.4906Z" fill="black"/>
<path d="M117.048 34.1664C116.782 36.1387 115.077 37.4922 112.895 37.4922C110.09 37.4922 108.348 35.3746 108.348 31.9773C108.348 28.5695 110.099 26.3594 112.812 26.3594C115.481 26.3594 117.159 28.4242 117.159 31.7184V32.4824H110.347V32.6172C110.315 33.017 110.36 33.4198 110.477 33.7988C110.594 34.1778 110.782 34.5244 111.027 34.8154C111.273 35.1065 111.57 35.3354 111.9 35.487C112.23 35.6385 112.585 35.7093 112.941 35.6945C113.409 35.7439 113.878 35.6218 114.28 35.3465C114.681 35.0712 114.993 34.6573 115.168 34.1664L117.048 34.1664ZM110.356 30.9238H115.178C115.196 30.5643 115.147 30.2045 115.036 29.8671C114.924 29.5296 114.752 29.2218 114.53 28.9629C114.308 28.704 114.04 28.4995 113.745 28.3625C113.449 28.2254 113.132 28.1587 112.812 28.1664C112.49 28.1642 112.17 28.234 111.872 28.3717C111.574 28.5094 111.302 28.7123 111.074 28.9686C110.846 29.225 110.665 29.5298 110.541 29.8653C110.418 30.2009 110.355 30.5607 110.356 30.9238V30.9238Z" fill="black"/>
<path d="M40.8201 11.2386C41.2352 11.205 41.6517 11.2757 42.0395 11.4454C42.4274 11.6151 42.777 11.8797 43.0631 12.22C43.3493 12.5604 43.5648 12.968 43.6941 13.4136C43.8234 13.8591 43.8634 14.3314 43.811 14.7964C43.811 17.0839 42.7135 18.3988 40.8201 18.3988H38.5242V11.2386H40.8201ZM39.5114 17.3862H40.7099C41.0064 17.4062 41.3032 17.3514 41.5786 17.2258C41.8541 17.1003 42.1012 16.9072 42.302 16.6605C42.5028 16.4138 42.6522 16.1198 42.7394 15.7999C42.8266 15.4799 42.8494 15.1421 42.8061 14.811C42.8462 14.4812 42.8212 14.1455 42.7326 13.8279C42.6441 13.5103 42.4943 13.2187 42.2939 12.974C42.0936 12.7292 41.8477 12.5375 41.5738 12.4124C41.2999 12.2873 41.0049 12.232 40.7099 12.2504H39.5114V17.3862Z" fill="black"/>
<path d="M44.9262 15.6904C44.8961 15.3353 44.9321 14.977 45.0321 14.6385C45.1321 14.3 45.2937 13.9888 45.5067 13.7248C45.7197 13.4609 45.9793 13.2499 46.2689 13.1056C46.5585 12.9613 46.8717 12.8867 47.1884 12.8867C47.5051 12.8867 47.8182 12.9613 48.1078 13.1056C48.3974 13.2499 48.6571 13.4609 48.87 13.7248C49.083 13.9888 49.2447 14.3 49.3447 14.6385C49.4446 14.977 49.4807 15.3353 49.4505 15.6904C49.4813 16.0458 49.4456 16.4046 49.3459 16.7436C49.2462 17.0827 49.0847 17.3945 48.8716 17.659C48.6586 17.9235 48.3988 18.1348 48.1089 18.2795C47.819 18.4241 47.5054 18.4988 47.1884 18.4988C46.8713 18.4988 46.5578 18.4241 46.2679 18.2795C45.978 18.1348 45.7182 17.9235 45.5051 17.659C45.2921 17.3945 45.1305 17.0827 45.0308 16.7436C44.9311 16.4046 44.8955 16.0458 44.9262 15.6904ZM48.4768 15.6904C48.4768 14.5191 48.0097 13.8341 47.1899 13.8341C46.3671 13.8341 45.9042 14.5191 45.9042 15.6904C45.9042 16.8711 46.3671 17.5507 47.1899 17.5507C48.0097 17.5507 48.4768 16.8663 48.4768 15.6904H48.4768Z" fill="black"/>
<path d="M55.4646 18.3957H54.4825L53.4911 14.416H53.4162L52.429 18.3957H51.4563L50.134 12.9922H51.0942L51.9535 17.1154H52.0243L53.0105 12.9922H53.9187L54.9049 17.1154H54.9798L55.8349 12.9922H56.7816L55.4646 18.3957Z" fill="black"/>
<path d="M57.8937 12.9924H58.805V13.8508H58.8757C58.9957 13.5425 59.1981 13.2841 59.4547 13.1115C59.7113 12.9389 60.0093 12.8609 60.3072 12.8881C60.5406 12.8684 60.775 12.908 60.9929 13.0041C61.2109 13.1002 61.4068 13.2504 61.5663 13.4434C61.7257 13.6364 61.8446 13.8673 61.9141 14.1191C61.9835 14.3709 62.0018 14.6371 61.9675 14.8979V18.3959H61.0209V15.1657C61.0209 14.2973 60.6859 13.8655 59.9857 13.8655C59.8273 13.8572 59.6691 13.8876 59.522 13.9545C59.3749 14.0215 59.2425 14.1236 59.1337 14.2536C59.0249 14.3837 58.9424 14.5387 58.8917 14.7081C58.8411 14.8774 58.8236 15.0571 58.8404 15.2348V18.396H57.8937L57.8937 12.9924Z" fill="black"/>
<path d="M63.476 10.8828H64.4226V18.3957H63.476V10.8828Z" fill="black"/>
<path d="M65.7387 15.6905C65.7086 15.3353 65.7447 14.977 65.8446 14.6386C65.9446 14.3001 66.1063 13.9888 66.3193 13.7248C66.5324 13.4609 66.792 13.2499 67.0816 13.1056C67.3712 12.9613 67.6844 12.8867 68.0011 12.8867C68.3178 12.8867 68.631 12.9613 68.9206 13.1056C69.2102 13.2499 69.4699 13.4609 69.6829 13.7248C69.8959 13.9888 70.0576 14.3001 70.1576 14.6386C70.2576 14.977 70.2937 15.3353 70.2635 15.6905C70.2942 16.046 70.2586 16.4047 70.1588 16.7438C70.0591 17.0828 69.8975 17.3946 69.6844 17.6591C69.4714 17.9235 69.2115 18.1349 68.9216 18.2795C68.6317 18.4242 68.3182 18.4989 68.0011 18.4989C67.6841 18.4989 67.3705 18.4242 67.0806 18.2795C66.7907 18.1349 66.5309 17.9235 66.3178 17.6591C66.1047 17.3946 65.9431 17.0828 65.8434 16.7438C65.7437 16.4047 65.708 16.046 65.7387 15.6905ZM69.2893 15.6905C69.2893 14.5192 68.8222 13.8342 68.0024 13.8342C67.1795 13.8342 66.7166 14.5192 66.7166 15.6905C66.7166 16.8712 67.1796 17.5508 68.0024 17.5508C68.8222 17.5508 69.2893 16.8664 69.2893 15.6905H69.2893Z" fill="black"/>
<path d="M71.2601 16.8664C71.2601 15.8937 71.903 15.333 73.0443 15.2533L74.3436 15.1689V14.7025C74.3436 14.1318 74.0086 13.8096 73.3616 13.8096C72.8331 13.8096 72.4669 14.0281 72.3618 14.4102H71.4453C71.5421 13.482 72.3171 12.8867 73.4053 12.8867C74.6079 12.8867 75.2861 13.5611 75.2861 14.7025V18.3945H74.3748V17.6352H74.2999C74.1479 17.9075 73.9344 18.1296 73.6813 18.2787C73.4281 18.4277 73.1444 18.4984 72.8591 18.4836C72.6577 18.5071 72.4542 18.4829 72.2616 18.4125C72.0691 18.3421 71.8917 18.227 71.7411 18.0746C71.5904 17.9222 71.4698 17.736 71.387 17.5279C71.3041 17.3198 71.2609 17.0945 71.2601 16.8664ZM74.3436 16.4047V15.9529L73.1722 16.0373C72.5116 16.0871 72.212 16.3402 72.212 16.8166C72.212 17.3029 72.5865 17.5859 73.1015 17.5859C73.2524 17.6031 73.4048 17.586 73.5497 17.5355C73.6946 17.4849 73.829 17.4021 73.9449 17.2919C74.0608 17.1817 74.1558 17.0464 74.2243 16.8939C74.2928 16.7415 74.3334 16.5751 74.3436 16.4047Z" fill="black"/>
<path d="M76.5304 15.6916C76.5304 13.9842 77.3096 12.9026 78.5215 12.9026C78.8213 12.887 79.1189 12.9679 79.3793 13.1358C79.6398 13.3036 79.8525 13.5516 79.9925 13.8506H80.0633V10.8828H81.01V18.3957H80.1028V17.542H80.0279C79.8771 17.839 79.657 18.0838 79.3914 18.25C79.1259 18.4162 78.8251 18.4974 78.5216 18.4848C77.3013 18.4848 76.5304 17.4031 76.5304 15.6916ZM77.5083 15.6916C77.5083 16.8377 77.9879 17.5274 78.79 17.5274C79.5879 17.5274 80.081 16.8278 80.081 15.6963C80.081 14.5701 79.5827 13.8606 78.79 13.8606C77.9931 13.8606 77.5083 14.5549 77.5083 15.6916H77.5083Z" fill="black"/>
<path d="M84.9267 15.6904C84.8966 15.3353 84.9326 14.977 85.0326 14.6385C85.1326 14.3 85.2942 13.9888 85.5072 13.7248C85.7202 13.4609 85.9798 13.2499 86.2694 13.1056C86.559 12.9613 86.8722 12.8867 87.1889 12.8867C87.5055 12.8867 87.8187 12.9613 88.1083 13.1056C88.3979 13.2499 88.6575 13.4609 88.8705 13.7248C89.0835 13.9888 89.2452 14.3 89.3451 14.6385C89.4451 14.977 89.4812 15.3353 89.451 15.6904C89.4818 16.0458 89.4461 16.4046 89.3464 16.7436C89.2467 17.0827 89.0851 17.3945 88.8721 17.659C88.659 17.9235 88.3992 18.1348 88.1093 18.2795C87.8195 18.4241 87.5059 18.4988 87.1889 18.4988C86.8718 18.4988 86.5583 18.4241 86.2684 18.2795C85.9785 18.1348 85.7187 17.9235 85.5056 17.659C85.2926 17.3945 85.131 17.0827 85.0313 16.7436C84.9316 16.4046 84.896 16.0458 84.9267 15.6904ZM88.4773 15.6904C88.4773 14.5191 88.0102 13.8341 87.1904 13.8341C86.3675 13.8341 85.9046 14.5191 85.9046 15.6904C85.9046 16.8711 86.3676 17.5507 87.1904 17.5507C88.0102 17.5507 88.4773 16.8663 88.4773 15.6904Z" fill="black"/>
<path d="M90.7212 12.9924H91.6325V13.8508H91.7033C91.8233 13.5425 92.0257 13.2841 92.2823 13.1115C92.5389 12.9389 92.8369 12.8609 93.1347 12.8881C93.3681 12.8684 93.6025 12.908 93.8204 13.0041C94.0384 13.1002 94.2344 13.2504 94.3938 13.4434C94.5533 13.6364 94.6721 13.8673 94.7416 14.1191C94.811 14.3709 94.8293 14.6371 94.795 14.8979V18.3959H93.8484V15.1657C93.8484 14.2973 93.5134 13.8655 92.8133 13.8655C92.6548 13.8572 92.4966 13.8876 92.3495 13.9545C92.2025 14.0215 92.07 14.1236 91.9612 14.2536C91.8524 14.3837 91.7699 14.5387 91.7192 14.7081C91.6686 14.8774 91.6511 15.0571 91.6679 15.2348V18.396H90.7212V12.9924Z" fill="black"/>
<path d="M100.144 11.6445V13.0145H101.184V13.9127H100.144V16.6912C100.144 17.2572 100.351 17.5051 100.823 17.5051C100.943 17.5046 101.064 17.4964 101.184 17.4805V18.3687C101.014 18.403 100.841 18.4212 100.669 18.4232C99.6158 18.4232 99.1966 18.006 99.1966 16.9643V13.9127H98.4351V13.0144H99.1966V11.6445H100.144Z" fill="black"/>
<path d="M102.477 10.8828H103.415V13.8606H103.49C103.616 13.5494 103.824 13.2895 104.085 13.1162C104.347 12.943 104.65 12.8649 104.953 12.8926C105.185 12.8784 105.417 12.922 105.632 13.0205C105.848 13.1189 106.041 13.2697 106.199 13.4621C106.357 13.6545 106.475 13.8838 106.545 14.1336C106.615 14.3833 106.636 14.6474 106.605 14.907V18.3957H105.657V15.1701C105.657 14.307 105.3 13.8699 104.631 13.8699C104.468 13.8549 104.305 13.8801 104.152 13.9437C103.999 14.0074 103.86 14.108 103.745 14.2385C103.629 14.369 103.541 14.5262 103.486 14.6992C103.43 14.8721 103.409 15.0567 103.423 15.2398V18.3957H102.477L102.477 10.8828Z" fill="black"/>
<path d="M112.125 16.9356C111.996 17.4295 111.717 17.8567 111.337 18.1424C110.957 18.4282 110.5 18.5544 110.046 18.4989C109.73 18.5083 109.416 18.4401 109.126 18.2991C108.835 18.1581 108.576 17.9475 108.365 17.6822C108.154 17.4168 107.997 17.1029 107.905 16.7624C107.812 16.4218 107.787 16.0626 107.83 15.7099C107.788 15.356 107.814 14.9961 107.906 14.6545C107.998 14.3129 108.154 13.9975 108.364 13.7299C108.574 13.4622 108.832 13.2484 109.122 13.1029C109.411 12.9575 109.725 12.8838 110.042 12.8868C111.377 12.8868 112.182 13.914 112.182 15.6108V15.9829H108.795V16.0427C108.78 16.241 108.802 16.4406 108.859 16.6287C108.917 16.8168 109.009 16.9892 109.129 17.135C109.25 17.2807 109.396 17.3965 109.558 17.475C109.72 17.5535 109.895 17.5929 110.072 17.5907C110.298 17.6213 110.528 17.5754 110.731 17.4587C110.934 17.3421 111.102 17.16 111.213 16.9356L112.125 16.9356ZM108.794 15.1942H111.217C111.229 15.0129 111.207 14.8307 111.153 14.6595C111.099 14.4882 111.013 14.3316 110.902 14.1998C110.791 14.068 110.657 13.9638 110.507 13.894C110.358 13.8242 110.198 13.7903 110.037 13.7944C109.873 13.7921 109.71 13.8267 109.559 13.8963C109.407 13.9658 109.269 14.0688 109.154 14.1993C109.038 14.3298 108.946 14.485 108.885 14.6559C108.823 14.8267 108.792 15.0098 108.795 15.1942H108.794Z" fill="black"/>
</g>
<defs>
<clipPath id="clip0_5219_3031">
<rect width="127.475" height="48" fill="white" transform="translate(0.524658 0.757812)"/>
</clipPath>
</defs>
</svg>
