<svg width="88" height="88" viewBox="0 0 88 88" fill="none" xmlns="http://www.w3.org/2000/svg">
<rect width="88" height="88" rx="44" fill="#E6E7E7"/>
<path d="M44 28C44 30.1011 43.5861 32.1817 42.7821 34.1229C41.978 36.0641 40.7994 37.828 39.3137 39.3137C37.828 40.7994 36.0641 41.978 34.1229 42.7821C32.1817 43.5861 30.1011 44 28 44L28 28H44Z" fill="#339999"/>
<path d="M44 44C44 46.1011 43.5861 48.1817 42.7821 50.1229C41.978 52.0641 40.7994 53.828 39.3137 55.3137C37.828 56.7994 36.0641 57.978 34.1229 58.7821C32.1817 59.5861 30.1011 60 28 60L28 44H44Z" fill="#EB7047"/>
<path d="M60 60C57.8988 60 55.8183 59.5861 53.8771 58.7821C51.9359 57.978 50.172 56.7994 48.6863 55.3137C47.2006 53.828 46.022 52.0641 45.2179 50.1229C44.4139 48.1817 44 46.1011 44 44L60 44V60Z" fill="#EB7047"/>
<path d="M60 44C57.8988 44 55.8183 43.5861 53.8771 42.7821C51.9359 41.978 50.172 40.7994 48.6863 39.3137C47.2006 37.828 46.022 36.0641 45.2179 34.1229C44.4139 32.1817 44 30.1011 44 28L60 28V44Z" fill="#339999"/>
</svg>
