<svg width="88" height="88" viewBox="0 0 88 88" fill="none" xmlns="http://www.w3.org/2000/svg">
<rect width="88" height="88" rx="44" fill="#E6E7E7"/>
<path d="M27.9996 39C27.9996 43.4372 30.6269 47.2608 34.4107 49H27.9996C27.9996 55.0751 32.9245 60 38.9996 60C43.4368 60 47.2604 57.3727 48.9996 53.589V60C55.0748 60 59.9996 55.0751 59.9996 49C59.9996 44.5628 57.3724 40.7392 53.5886 39H59.9996C59.9996 32.9249 55.0748 28 48.9996 28C44.5624 28 40.7389 30.6273 38.9996 34.411V28C32.9245 28 27.9996 32.9249 27.9996 39Z" fill="#2929A3"/>
<path d="M48.9998 44C48.9998 46.7614 46.7612 49 43.9998 49C41.2383 49 38.9998 46.7614 38.9998 44C38.9998 41.2386 41.2383 39 43.9998 39C46.7612 39 48.9998 41.2386 48.9998 44Z" fill="#FF6680"/>
</svg>
