<svg width="41" height="41" viewBox="0 0 41 41" fill="none" xmlns="http://www.w3.org/2000/svg">
<rect width="40" height="40" transform="translate(0.262329 0.757812)" fill="#F7F8F8"/>
<path d="M24.7623 11.7578H15.7623C13.277 11.7578 11.2623 13.7725 11.2623 16.2578V25.2578C11.2623 27.7431 13.277 29.7578 15.7623 29.7578H24.7623C27.2476 29.7578 29.2623 27.7431 29.2623 25.2578V16.2578C29.2623 13.7725 27.2476 11.7578 24.7623 11.7578Z" stroke="#010E0E" stroke-width="1.5" stroke-linecap="round" stroke-linejoin="round"/>
<path d="M23.8621 20.1891C23.9732 20.9382 23.8452 21.7031 23.4965 22.3752C23.1477 23.0474 22.5959 23.5924 21.9196 23.9328C21.2432 24.2733 20.4767 24.3918 19.7291 24.2715C18.9815 24.1512 18.2909 23.7982 17.7555 23.2628C17.22 22.7273 16.8671 22.0367 16.7468 21.2891C16.6265 20.5415 16.745 19.775 17.0854 19.0987C17.4258 18.4223 17.9709 17.8705 18.643 17.5217C19.3151 17.173 20.0801 17.0451 20.8291 17.1561C21.5931 17.2694 22.3005 17.6254 22.8466 18.1716C23.3928 18.7178 23.7488 19.4251 23.8621 20.1891Z" stroke="#010E0E" stroke-width="1.5" stroke-linecap="round" stroke-linejoin="round"/>
<path d="M25.2123 15.8086H25.2213" stroke="#010E0E" stroke-width="1.5" stroke-linecap="round" stroke-linejoin="round"/>
</svg>
