<svg width="41" height="41" viewBox="0 0 41 41" fill="none" xmlns="http://www.w3.org/2000/svg">
<rect width="40" height="40" transform="translate(0.262329 0.757812)" fill="#F7F8F8"/>
<path d="M24.2623 16.7578C25.8536 16.7578 27.3798 17.39 28.505 18.5152C29.6302 19.6404 30.2623 21.1665 30.2623 22.7578V29.7578H26.2623V22.7578C26.2623 22.2274 26.0516 21.7187 25.6765 21.3436C25.3015 20.9685 24.7928 20.7578 24.2623 20.7578C23.7319 20.7578 23.2232 20.9685 22.8481 21.3436C22.473 21.7187 22.2623 22.2274 22.2623 22.7578V29.7578H18.2623V22.7578C18.2623 21.1665 18.8945 19.6404 20.0197 18.5152C21.1449 17.39 22.671 16.7578 24.2623 16.7578Z" stroke="#010E0E" stroke-width="1.5" stroke-linecap="round" stroke-linejoin="round"/>
<path d="M14.2623 17.7578H10.2623V29.7578H14.2623V17.7578Z" stroke="#010E0E" stroke-width="1.5" stroke-linecap="round" stroke-linejoin="round"/>
<path d="M12.2623 14.7578C13.3669 14.7578 14.2623 13.8624 14.2623 12.7578C14.2623 11.6532 13.3669 10.7578 12.2623 10.7578C11.1578 10.7578 10.2623 11.6532 10.2623 12.7578C10.2623 13.8624 11.1578 14.7578 12.2623 14.7578Z" stroke="#010E0E" stroke-width="1.5" stroke-linecap="round" stroke-linejoin="round"/>
</svg>
