<svg width="146" height="41" viewBox="0 0 146 41" fill="none" xmlns="http://www.w3.org/2000/svg">
<path d="M20 36.7578L4 36.7578L4 20.7578C12.8366 20.7578 20 27.9213 20 36.7578Z" fill="#194E8A"/>
<path d="M36 20.7578V36.7578H20C20 27.9213 27.1634 20.7578 36 20.7578Z" fill="#194E8A"/>
<path d="M18 13.7578C18 8.78725 22.0294 4.75781 27 4.75781C31.9706 4.75781 36 8.78725 36 13.7578C36 18.7284 31.9706 22.7578 27 22.7578C22.0294 22.7578 18 18.7284 18 13.7578Z" fill="#FFC42E"/>
<path d="M20 4.75781H4V20.7578C12.8366 20.7578 20 13.5944 20 4.75781Z" fill="#194E8A"/>
<path d="M50.24 19.9698H52.52C53.768 19.9698 54.392 19.5378 54.392 18.3138V17.4978H55.52V23.5218H54.392V22.7058C54.392 21.4818 53.768 21.0498 52.52 21.0498H50.24V27.0498C50.24 27.8418 50.576 28.1538 52.208 28.1538H53.672C57.272 28.1538 57.872 27.4818 58.232 23.4738H59.456V29.2578H44.912V28.1538H46.184C46.664 28.1538 47 27.8418 47 27.1458V14.5698C47 13.8738 46.664 13.5618 46.184 13.5618H44.912V12.4578H59.456V18.0258H58.232C57.872 13.9938 57.272 13.5618 53.672 13.5618H50.24V19.9698ZM73.0837 25.5858C73.0837 28.1298 70.9957 29.4978 68.2837 29.4978C66.5317 29.4978 65.1397 28.8498 63.9637 27.6498L63.7237 29.2578H62.5477V25.3458H63.7957C64.4917 27.0258 65.8837 28.2738 68.0677 28.2738C69.5317 28.2738 70.5397 27.6978 70.5397 26.4738C70.5397 23.2818 62.4997 25.2498 62.4997 20.4738C62.4997 18.3138 64.3477 16.8978 67.0117 16.8978C68.6677 16.8978 69.9877 17.4738 71.0437 18.5538L71.2357 17.1378H72.3877V20.6658H71.1637C70.5877 19.2018 69.0517 18.0738 67.0597 18.0738C65.6677 18.0738 64.9477 18.6738 64.9477 19.5618C64.9477 22.3218 73.0837 20.5698 73.0837 25.5858ZM86.1149 25.5858C86.1149 28.1298 84.0269 29.4978 81.3149 29.4978C79.5629 29.4978 78.1709 28.8498 76.9949 27.6498L76.7549 29.2578H75.5789V25.3458H76.8269C77.5229 27.0258 78.9149 28.2738 81.0989 28.2738C82.5629 28.2738 83.5709 27.6978 83.5709 26.4738C83.5709 23.2818 75.5309 25.2498 75.5309 20.4738C75.5309 18.3138 77.3789 16.8978 80.0429 16.8978C81.6989 16.8978 83.0189 17.4738 84.0749 18.5538L84.2669 17.1378H85.4189V20.6658H84.1949C83.6189 19.2018 82.0829 18.0738 80.0909 18.0738C78.6989 18.0738 77.9789 18.6738 77.9789 19.5618C77.9789 22.3218 86.1149 20.5698 86.1149 25.5858ZM100.178 25.2498C99.6502 27.9138 97.8022 29.4978 94.7062 29.4978C91.1542 29.4978 88.3942 27.1938 88.3942 23.2098C88.3942 19.2018 91.1302 16.8978 94.5862 16.8978C97.8262 16.8978 100.346 19.0338 100.346 23.1138H91.6582C91.6582 23.3538 91.6582 23.6178 91.6822 23.8338C91.8022 26.7858 93.0502 28.2978 95.2582 28.2978C95.4502 28.2978 95.5942 28.2738 95.7622 28.2498C97.4662 28.1298 98.5222 27.0978 98.9302 25.2498H100.178ZM94.6102 17.9538C92.8582 17.9538 91.8502 19.3218 91.6822 22.0578H97.4422C97.3702 19.2978 96.4102 17.9538 94.6102 17.9538ZM108.34 28.2018V29.2578H101.884V28.2018H103.084C103.516 28.2018 103.732 27.9618 103.732 27.4338V18.9618C103.732 18.4338 103.516 18.1938 103.084 18.1938H101.884V17.1378H106.78V19.4178H106.9C108.004 17.9538 109.492 16.8978 111.46 16.8978C114.004 16.8978 115.396 18.3858 115.396 21.0738V27.4578C115.396 27.9618 115.636 28.2018 116.044 28.2018H117.268V29.2578H110.812V28.2018H111.628C112.036 28.2018 112.276 27.9618 112.276 27.4338V20.6658C112.276 19.2978 111.604 18.5298 110.308 18.5298C108.844 18.5298 107.668 19.6578 106.876 21.0978V27.4338C106.876 27.9618 107.116 28.2018 107.523 28.2018H108.34ZM130.358 25.2498C129.83 27.9138 127.982 29.4978 125.054 29.4978C121.574 29.4978 118.886 27.1938 118.886 23.2098C118.886 19.2018 121.79 16.8978 125.222 16.8978C128.654 16.8978 130.238 18.7938 130.238 20.3298C130.238 21.3858 129.566 21.9618 128.654 21.9618C128.03 21.9618 127.454 21.5778 127.382 20.9298C127.238 20.6658 127.19 20.3538 127.286 19.9938C127.382 19.6338 127.694 19.3218 128.126 19.2738C128.246 19.2498 128.366 19.2258 128.486 19.2258C128.006 18.5298 127.07 17.9538 125.702 17.9538C123.446 17.9538 122.126 19.6578 122.126 23.1618C122.126 26.5938 123.326 28.2978 125.606 28.2978C125.846 28.2978 126.038 28.2738 126.23 28.2258C127.742 28.0578 128.726 27.0258 129.11 25.2498H130.358ZM144.053 25.2498C143.525 27.9138 141.677 29.4978 138.581 29.4978C135.029 29.4978 132.269 27.1938 132.269 23.2098C132.269 19.2018 135.005 16.8978 138.461 16.8978C141.701 16.8978 144.221 19.0338 144.221 23.1138H135.533C135.533 23.3538 135.533 23.6178 135.557 23.8338C135.677 26.7858 136.925 28.2978 139.133 28.2978C139.325 28.2978 139.469 28.2738 139.637 28.2498C141.341 28.1298 142.397 27.0978 142.805 25.2498H144.053ZM138.485 17.9538C136.733 17.9538 135.725 19.3218 135.557 22.0578H141.317C141.245 19.2978 140.285 17.9538 138.485 17.9538Z" fill="#194E8A"/>
</svg>
