<svg width="61" height="33" viewBox="0 0 61 33" fill="none" xmlns="http://www.w3.org/2000/svg">
<rect x="1" y="1.25781" width="59" height="31" rx="3.5" fill="#E6E7E7"/>
<rect x="1" y="1.25781" width="59" height="31" rx="3.5" stroke="white"/>
<g clip-path="url(#clip0_5219_3089)">
<path d="M33.7446 11.3438H27.2554V22.9898H33.7446V11.3438Z" fill="#FF5F00"/>
<path d="M27.6674 17.1669C27.6674 14.9036 28.718 12.7431 30.4897 11.3439C27.276 8.81302 22.6202 9.36858 20.0863 12.599C17.5524 15.8089 18.1086 20.4591 21.3429 22.99C24.0416 25.1093 27.8116 25.1093 30.5103 22.99C28.718 21.5908 27.6674 19.4303 27.6674 17.1669Z" fill="#EB001B"/>
<path d="M42.5 17.1669C42.5 21.2616 39.1832 24.5743 35.0836 24.5743C33.415 24.5743 31.8081 24.0188 30.5103 22.99C33.724 20.4591 34.2802 15.8089 31.7463 12.5785C31.3755 12.1258 30.9635 11.6937 30.5103 11.3439C33.724 8.81302 38.4004 9.36858 40.9137 12.599C41.9437 13.8953 42.5 15.5003 42.5 17.1669Z" fill="#F79E1B"/>
<path d="M41.7996 21.7568V21.5099H41.9026V21.4688H41.6554V21.5099H41.7584V21.7568H41.7996ZM42.2734 21.7568V21.4688H42.191L42.1086 21.6745L42.0262 21.4688H41.9438V21.7568H42.0056V21.5305L42.088 21.7157H42.1498L42.2322 21.5305V21.7568H42.2734Z" fill="#F79E1B"/>
</g>
<defs>
<clipPath id="clip0_5219_3089">
<rect width="24" height="14.8148" fill="white" transform="translate(18.5 9.75781)"/>
</clipPath>
</defs>
</svg>
