<svg width="61" height="33" viewBox="0 0 61 33" fill="none" xmlns="http://www.w3.org/2000/svg">
<rect x="1" y="1.25781" width="59" height="31" rx="3.5" fill="#E6E7E7"/>
<rect x="1" y="1.25781" width="59" height="31" rx="3.5" stroke="white"/>
<g clip-path="url(#clip0_5219_3097)">
<path d="M37.4859 11.6685C37.5394 8.886 35.2434 6.75 32.0864 6.75H25.5574C25.4053 6.75005 25.2581 6.80442 25.1424 6.90332C25.0267 7.00222 24.9501 7.13916 24.9264 7.2895L22.3099 23.6375C22.2982 23.7116 22.3027 23.7873 22.3231 23.8595C22.3435 23.9317 22.3792 23.9986 22.428 24.0556C22.4767 24.1126 22.5372 24.1584 22.6053 24.1898C22.6734 24.2212 22.7475 24.2375 22.8224 24.2375H26.6909L26.0859 28.0235C26.0742 28.0976 26.0787 28.1734 26.0991 28.2456C26.1195 28.3178 26.1554 28.3847 26.2041 28.4418C26.2529 28.4988 26.3134 28.5446 26.3816 28.576C26.4498 28.6073 26.5239 28.6236 26.5989 28.6235H29.7499C29.9024 28.6235 30.0379 28.5685 30.1534 28.47C30.2689 28.371 30.2879 28.2345 30.3114 28.084L31.2364 22.6415C31.2599 22.4915 31.3364 22.2965 31.4524 22.1975C31.5679 22.0985 31.6689 22.0445 31.8209 22.044H33.7499C36.8414 22.044 39.4649 19.847 39.9444 16.7905C40.2834 14.6205 39.3529 12.647 37.4859 11.6685Z" fill="#001C64"/>
<path d="M27.528 18.208L26.5645 24.318L25.9595 28.15C25.9478 28.2241 25.9523 28.2999 25.9727 28.3721C25.9931 28.4443 26.0289 28.5112 26.0777 28.5682C26.1264 28.6253 26.187 28.6711 26.2551 28.7024C26.3233 28.7338 26.3974 28.75 26.4725 28.75H29.8075C29.9596 28.7498 30.1066 28.6954 30.2222 28.5965C30.3378 28.4976 30.4143 28.3607 30.438 28.2105L31.317 22.6405C31.3407 22.4903 31.4172 22.3534 31.5328 22.2546C31.6484 22.1558 31.7954 22.1015 31.9475 22.1015H33.911C37.0025 22.1015 39.6255 19.8465 40.105 16.79C40.445 14.6205 39.353 12.647 37.486 11.668C37.481 11.899 37.461 12.1295 37.4255 12.358C36.946 15.414 34.3225 17.6695 31.231 17.6695H28.1585C28.0065 17.6695 27.8595 17.7237 27.7439 17.8225C27.6284 17.9212 27.5518 18.0579 27.528 18.208Z" fill="#0070E0"/>
<path d="M26.564 24.3159H22.684C22.609 24.316 22.5348 24.2998 22.4667 24.2684C22.3985 24.237 22.338 24.1912 22.2893 24.1342C22.2406 24.0772 22.2048 24.0102 22.1845 23.938C22.1641 23.8658 22.1597 23.79 22.1715 23.7159L24.7875 7.12494C24.8112 6.97465 24.8878 6.83777 25.0035 6.73895C25.1192 6.64013 25.2663 6.58587 25.4185 6.58594H32.087C35.2435 6.58594 37.5395 8.88344 37.486 11.6659C36.7005 11.2539 35.7775 11.0184 34.766 11.0184H29.2065C29.0545 11.0186 28.9075 11.0729 28.7919 11.1717C28.6763 11.2705 28.5998 11.4073 28.576 11.5574L27.5285 18.2059L26.564 24.3159Z" fill="#003087"/>
</g>
<defs>
<clipPath id="clip0_5219_3097">
<rect width="24" height="24" fill="white" transform="translate(18.5 4.75781)"/>
</clipPath>
</defs>
</svg>
