<svg width="163" height="49" viewBox="0 0 163 49" fill="none" xmlns="http://www.w3.org/2000/svg">
<g clip-path="url(#clip0_5219_3012)">
<path d="M156.525 0.757812H6.52466C3.21095 0.757812 0.524658 3.4441 0.524658 6.75781V42.7578C0.524658 46.0715 3.21095 48.7578 6.52466 48.7578H156.525C159.838 48.7578 162.525 46.0715 162.525 42.7578V6.75781C162.525 3.4441 159.838 0.757812 156.525 0.757812Z" fill="white"/>
<path d="M156.525 1.71781C157.861 1.71781 159.143 2.24881 160.088 3.19399C161.034 4.13918 161.565 5.42112 161.565 6.75781V42.7578C161.565 44.0945 161.034 45.3764 160.088 46.3216C159.143 47.2668 157.861 47.7978 156.525 47.7978H6.52466C5.18797 47.7978 3.90602 47.2668 2.96084 46.3216C2.01566 45.3764 1.48466 44.0945 1.48466 42.7578V6.75781C1.48466 5.42112 2.01566 4.13918 2.96084 3.19399C3.90602 2.24881 5.18797 1.71781 6.52466 1.71781H156.525ZM156.525 0.757812H6.52466C4.93336 0.757813 3.40724 1.38995 2.28202 2.51517C1.1568 3.64039 0.524658 5.16651 0.524658 6.75781V42.7578C0.524658 44.3491 1.1568 45.8752 2.28202 47.0005C3.40724 48.1257 4.93336 48.7578 6.52466 48.7578H156.525C158.116 48.7578 159.642 48.1257 160.767 47.0005C161.893 45.8752 162.525 44.3491 162.525 42.7578V6.75781C162.525 5.16651 161.893 3.64039 160.767 2.51517C159.642 1.38995 158.116 0.757813 156.525 0.757812Z" fill="black"/>
<path d="M57.4287 13.0441C57.4484 13.4842 57.3789 13.9237 57.2242 14.3362C57.0695 14.7486 56.8329 15.1255 56.5287 15.4441C56.1878 15.7961 55.7764 16.0721 55.3215 16.254C54.8666 16.436 54.3783 16.5199 53.8887 16.5001C53.3963 16.5111 52.9069 16.4209 52.4507 16.2351C51.9946 16.0494 51.5814 15.772 51.2367 15.4201C50.5375 14.7049 50.146 13.7444 50.146 12.7441C50.146 11.7439 50.5375 10.7833 51.2367 10.0681C51.7713 9.54573 52.4484 9.19299 53.1828 9.05422C53.9173 8.91544 54.6764 8.99681 55.3647 9.28811C55.7975 9.46599 56.1834 9.74109 56.4927 10.0921L55.8567 10.7281C55.6184 10.441 55.3165 10.2135 54.9749 10.0635C54.6332 9.91351 54.2614 9.84525 53.8887 9.86411C53.4184 9.86736 52.9559 9.98578 52.5419 10.209C52.1279 10.4322 51.7748 10.7535 51.5136 11.1447C51.2524 11.5358 51.0909 11.9851 51.0434 12.453C50.9959 12.921 51.0637 13.3935 51.2409 13.8292C51.4182 14.2649 51.6994 14.6506 52.0601 14.9525C52.4208 15.2544 52.85 15.4634 53.3101 15.5612C53.7702 15.6589 54.2473 15.6425 54.6996 15.5133C55.1519 15.3841 55.5657 15.1461 55.9047 14.8201C56.2713 14.4182 56.4838 13.8996 56.5047 13.3561H53.8887V12.4921H57.3807C57.4081 12.6749 57.4241 12.8593 57.4287 13.0441Z" fill="black" stroke="black" stroke-width="0.411304" stroke-miterlimit="10"/>
<path d="M62.9247 10.0442H59.6847V12.3242H62.6367V13.1883H59.6847V15.4682H62.9247V16.3562H58.7487V9.15625H62.9247V10.0442Z" fill="black" stroke="black" stroke-width="0.411304" stroke-miterlimit="10"/>
<path d="M66.8607 16.3562H65.9367V10.0442H63.9207V9.15625H68.9247V10.0442H66.8607V16.3562Z" fill="black" stroke="black" stroke-width="0.411304" stroke-miterlimit="10"/>
<path d="M72.4526 16.3562V9.15625H73.3766V16.3562H72.4526Z" fill="black" stroke="black" stroke-width="0.411304" stroke-miterlimit="10"/>
<path d="M77.4806 16.3562H76.5567V10.0442H74.5406V9.15625H79.4847V10.0442H77.4806V16.3562Z" fill="black" stroke="black" stroke-width="0.411304" stroke-miterlimit="10"/>
<path d="M88.8566 15.4212C88.51 15.7681 88.0985 16.0432 87.6455 16.231C87.1925 16.4187 86.707 16.5154 86.2166 16.5154C85.7263 16.5154 85.2407 16.4187 84.7877 16.231C84.3347 16.0432 83.9232 15.7681 83.5766 15.4212C82.8982 14.7001 82.5205 13.7473 82.5205 12.7572C82.5205 11.7671 82.8982 10.8143 83.5766 10.0932C83.9157 9.73656 84.3259 9.45508 84.7807 9.26698C85.2355 9.07887 85.7247 8.98833 86.2166 9.0012C86.7079 8.99343 87.1955 9.08631 87.6496 9.27411C88.1036 9.46191 88.5144 9.74066 88.8566 10.0932C89.2017 10.4442 89.4729 10.8608 89.6543 11.3183C89.8356 11.7759 89.9235 12.2651 89.9126 12.7572C89.9284 13.2499 89.8428 13.7406 89.6611 14.1988C89.4795 14.6571 89.2056 15.0731 88.8566 15.4212ZM84.2606 14.8212C84.5162 15.0803 84.8208 15.2859 85.1566 15.4263C85.4923 15.5667 85.8527 15.639 86.2166 15.639C86.5806 15.639 86.9409 15.5667 87.2767 15.4263C87.6124 15.2859 87.917 15.0803 88.1726 14.8212C88.6904 14.2586 88.9778 13.5218 88.9778 12.7572C88.9778 11.9926 88.6904 11.2559 88.1726 10.6932C87.917 10.4342 87.6124 10.2285 87.2767 10.0881C86.9409 9.94767 86.5806 9.87538 86.2166 9.87538C85.8527 9.87538 85.4923 9.94767 85.1566 10.0881C84.8208 10.2285 84.5162 10.4342 84.2606 10.6932C83.7428 11.2559 83.4554 11.9926 83.4554 12.7572C83.4554 13.5218 83.7428 14.2586 84.2606 14.8212Z" fill="black" stroke="black" stroke-width="0.411304" stroke-miterlimit="10"/>
<path d="M91.2207 16.3562V9.15625H92.3367L95.8407 14.7602V13.3682V9.15625H96.7647V16.3562H95.8047L92.1447 10.4883V11.8683V16.3562H91.2207Z" fill="black" stroke="black" stroke-width="0.411304" stroke-miterlimit="10"/>
<path d="M82.2926 26.8608C81.2816 26.8632 80.2939 27.1654 79.4546 27.729C78.6152 28.2927 77.9619 29.0926 77.5772 30.0276C77.1924 30.9627 77.0936 31.9907 77.2932 32.9819C77.4928 33.9731 77.9818 34.8828 78.6984 35.596C79.415 36.3093 80.327 36.794 81.3191 36.9889C82.3112 37.1839 83.3388 37.0802 84.272 36.6911C85.2052 36.302 86.002 35.6449 86.5617 34.8029C87.1215 33.961 87.419 32.9719 87.4166 31.9608C87.4264 31.2864 87.3004 30.6168 87.046 29.9921C86.7917 29.3673 86.4142 28.8001 85.9361 28.3243C85.458 27.8484 84.8891 27.4736 84.2631 27.2222C83.6372 26.9708 82.967 26.8479 82.2926 26.8608ZM82.2926 35.0568C81.6729 35.1002 81.0545 34.9561 80.5178 34.6433C79.981 34.3305 79.5508 33.8635 79.283 33.303C79.0152 32.7424 78.9223 32.1143 79.0162 31.5002C79.1102 30.8862 79.3867 30.3145 79.8098 29.8597C80.2329 29.4048 80.783 29.0878 81.3887 28.9498C81.9944 28.8118 82.6276 28.8591 83.206 29.0857C83.7844 29.3124 84.2813 29.7077 84.632 30.2205C84.9827 30.7332 85.1711 31.3396 85.1726 31.9608C85.1919 32.3545 85.1323 32.748 84.9971 33.1181C84.8619 33.4883 84.654 33.8277 84.3856 34.1163C84.1172 34.4048 83.7937 34.6367 83.4342 34.7982C83.0748 34.9598 82.6866 35.0477 82.2926 35.0568ZM71.1086 26.8608C70.0976 26.8632 69.1099 27.1654 68.2706 27.729C67.4312 28.2927 66.7779 29.0926 66.3932 30.0276C66.0084 30.9627 65.9096 31.9907 66.1092 32.9819C66.3088 33.9731 66.7978 34.8828 67.5144 35.596C68.231 36.3093 69.143 36.794 70.1351 36.9889C71.1272 37.1839 72.1548 37.0802 73.088 36.6911C74.0212 36.302 74.818 35.6449 75.3777 34.8029C75.9375 33.961 76.235 32.9719 76.2326 31.9608C76.2424 31.2864 76.1164 30.6168 75.862 29.9921C75.6077 29.3673 75.2302 28.8001 74.7521 28.3243C74.274 27.8484 73.7051 27.4736 73.0791 27.2222C72.4532 26.9708 71.783 26.8479 71.1086 26.8608ZM71.1086 35.0568C70.4889 35.1002 69.8705 34.9561 69.3338 34.6433C68.797 34.3305 68.3668 33.8635 68.099 33.303C67.8312 32.7424 67.7383 32.1143 67.8322 31.5002C67.9262 30.8862 68.2027 30.3145 68.6258 29.8597C69.0489 29.4048 69.599 29.0878 70.2047 28.9498C70.8104 28.8118 71.4436 28.8591 72.022 29.0857C72.6004 29.3124 73.0973 29.7077 73.448 30.2205C73.7987 30.7332 73.9871 31.3396 73.9886 31.9608C74.0079 32.3545 73.9483 32.748 73.8131 33.1181C73.6779 33.4883 73.47 33.8277 73.2016 34.1163C72.9332 34.4048 72.6097 34.6367 72.2502 34.7982C71.8908 34.9598 71.5026 35.0477 71.1086 35.0568ZM57.8126 28.4328V30.5928H62.9966C62.9153 31.6102 62.4924 32.5702 61.7966 33.3168C61.2766 33.8467 60.6511 34.2614 59.9607 34.5343C59.2703 34.8071 58.5303 34.932 57.7886 34.9008C56.261 34.9008 54.7959 34.294 53.7157 33.2138C52.6355 32.1336 52.0286 30.6685 52.0286 29.1408C52.0286 27.6132 52.6355 26.1481 53.7157 25.0679C54.7959 23.9877 56.261 23.3808 57.7886 23.3808C59.2531 23.3591 60.6673 23.9152 61.7246 24.9288L63.2486 23.4048C62.5334 22.6975 61.6842 22.1399 60.7508 21.7649C59.8173 21.3899 58.8184 21.2049 57.8126 21.2208C56.7458 21.1793 55.6816 21.3536 54.6838 21.7332C53.6859 22.1128 52.775 22.69 52.0055 23.4301C51.2361 24.1701 50.6239 25.058 50.2058 26.0403C49.7877 27.0226 49.5721 28.0792 49.5721 29.1468C49.5721 30.2145 49.7877 31.2711 50.2058 32.2534C50.6239 33.2357 51.2361 34.1235 52.0055 34.8636C52.775 35.6037 53.6859 36.1809 54.6838 36.5605C55.6816 36.9401 56.7458 37.1144 57.8126 37.0728C58.8391 37.1138 59.8627 36.9372 60.8161 36.5546C61.7695 36.172 62.6312 35.5921 63.3446 34.8528C64.6047 33.4685 65.2762 31.6479 65.2166 29.7768C65.2209 29.3265 65.1848 28.8767 65.1086 28.4328H57.8126ZM112.185 30.1128C111.872 29.1921 111.286 28.3882 110.506 27.8075C109.726 27.2267 108.788 26.8966 107.817 26.8608C107.16 26.8596 106.511 26.9929 105.908 27.2527C105.305 27.5124 104.762 27.8931 104.312 28.3711C103.862 28.8491 103.515 29.4143 103.292 30.0317C103.069 30.6491 102.976 31.3057 103.017 31.9608C103.006 33.0563 103.351 34.1256 103.998 35.0092C104.646 35.8927 105.562 36.543 106.61 36.863C107.657 37.183 108.781 37.1554 109.811 36.7845C110.842 36.4135 111.725 35.7191 112.329 34.8048L110.589 33.6048C110.329 34.0372 109.961 34.3942 109.521 34.6405C109.081 34.8868 108.585 35.0137 108.081 35.0088C107.56 35.0303 107.046 34.894 106.605 34.6177C106.164 34.3414 105.816 33.9381 105.609 33.4608L112.437 30.6408L112.185 30.1128ZM105.225 31.8168C105.2 31.4441 105.251 31.0702 105.373 30.7172C105.495 30.3641 105.686 30.0389 105.935 29.7607C106.184 29.4824 106.486 29.2567 106.824 29.0967C107.161 28.9367 107.527 28.8456 107.901 28.8288C108.287 28.8052 108.672 28.8963 109.007 29.0905C109.343 29.2848 109.613 29.5736 109.785 29.9208L105.225 31.8168ZM99.6806 36.7608H101.925V21.7608H99.6806V36.7608ZM96.0086 28.0008H95.9246C95.5894 27.6191 95.1757 27.3142 94.7117 27.1071C94.2478 26.9 93.7446 26.7955 93.2366 26.8008C91.9252 26.8644 90.6886 27.4302 89.783 28.3807C88.8774 29.3313 88.3722 30.5939 88.3722 31.9068C88.3722 33.2198 88.8774 34.4824 89.783 35.4329C90.6886 36.3835 91.9252 36.9493 93.2366 37.0128C93.7454 37.023 94.2501 36.9208 94.7148 36.7133C95.1794 36.5059 95.5925 36.1984 95.9246 35.8128H96.0086V36.5448C96.0086 38.5008 94.9646 39.5448 93.2846 39.5448C92.7234 39.5325 92.1785 39.3537 91.7191 39.0311C91.2598 38.7084 90.9067 38.2566 90.7046 37.7328L88.7606 38.5368C89.12 39.4395 89.7449 40.2119 90.5527 40.7519C91.3605 41.2918 92.3131 41.5739 93.2846 41.5608C95.9126 41.5608 98.0846 40.0128 98.0846 36.2448V27.1608H96.0086V28.0008ZM93.4286 35.0568C92.6424 35.0078 91.9044 34.6609 91.365 34.0868C90.8256 33.5127 90.5253 32.7546 90.5253 31.9668C90.5253 31.1791 90.8256 30.421 91.365 29.8469C91.9044 29.2728 92.6424 28.9259 93.4286 28.8768C93.8129 28.8934 94.1899 28.9871 94.5372 29.1524C94.8846 29.3177 95.1951 29.5511 95.4504 29.8389C95.7056 30.1266 95.9004 30.4627 96.0231 30.8273C96.1458 31.1918 96.1939 31.5773 96.1646 31.9608C96.1973 32.3457 96.1517 32.7331 96.0304 33.0998C95.9091 33.4665 95.7147 33.8048 95.459 34.0942C95.2032 34.3836 94.8914 34.6181 94.5424 34.7836C94.1935 34.949 93.8145 35.042 93.4286 35.0568ZM122.697 21.7608H117.321V36.7608H119.565V31.0728H122.697C123.336 31.1188 123.978 31.0325 124.583 30.8193C125.188 30.6061 125.742 30.2707 126.211 29.8338C126.681 29.397 127.055 28.8681 127.311 28.2802C127.567 27.6924 127.699 27.058 127.699 26.4168C127.699 25.7757 127.567 25.1413 127.311 24.5534C127.055 23.9656 126.681 23.4367 126.211 22.9999C125.742 22.563 125.188 22.2275 124.583 22.0144C123.978 21.8012 123.336 21.7149 122.697 21.7608ZM122.697 28.9608H119.565V23.8488H122.745C123.082 23.8488 123.416 23.9153 123.727 24.0443C124.039 24.1734 124.322 24.3625 124.56 24.601C124.799 24.8395 124.988 25.1226 125.117 25.4341C125.246 25.7457 125.313 26.0796 125.313 26.4168C125.313 26.7541 125.246 27.088 125.117 27.3996C124.988 27.7111 124.799 27.9942 124.56 28.2327C124.322 28.4712 124.039 28.6603 123.727 28.7894C123.416 28.9184 123.082 28.9848 122.745 28.9848L122.697 28.9608ZM136.545 26.8128C135.727 26.7625 134.913 26.9527 134.203 27.3601C133.493 27.7674 132.918 28.374 132.549 29.1048L134.529 29.9328C134.729 29.5721 135.029 29.2771 135.393 29.0833C135.757 28.8895 136.17 28.8053 136.581 28.8408C136.865 28.8076 137.154 28.8314 137.43 28.9108C137.705 28.9903 137.962 29.1239 138.186 29.3037C138.409 29.4835 138.594 29.7061 138.731 29.9583C138.867 30.2106 138.952 30.4874 138.981 30.7728V30.9168C138.259 30.5375 137.456 30.3398 136.641 30.3408C134.505 30.3408 132.321 31.5408 132.321 33.7248C132.342 34.1891 132.456 34.6443 132.656 35.0635C132.857 35.4827 133.14 35.8574 133.488 36.1652C133.836 36.473 134.242 36.7077 134.683 36.8554C135.124 37.0031 135.589 37.0607 136.053 37.0248C136.616 37.056 137.177 36.9368 137.679 36.6796C138.181 36.4223 138.605 36.0362 138.909 35.5608H138.981V36.7608H141.141V30.9888C141.141 28.3608 139.149 26.8368 136.593 26.8368L136.545 26.8128ZM136.269 35.0328C135.537 35.0328 134.517 34.6608 134.517 33.7608C134.517 32.5608 135.789 32.1528 136.917 32.1528C137.629 32.1353 138.334 32.3093 138.957 32.6568C138.881 33.3085 138.572 33.9108 138.087 34.3521C137.601 34.7934 136.973 35.0438 136.317 35.0568L136.269 35.0328ZM149.013 27.1608L146.445 33.6648H146.373L143.709 27.1608H141.309L145.305 36.2568L143.025 41.3088H145.365L151.509 27.1608H149.013ZM128.853 36.7608H131.085V21.7608H128.853V36.7608Z" fill="black"/>
<path d="M13.0527 9.80275C12.6572 10.2703 12.4555 10.8713 12.4887 11.4828V38.0267C12.4478 38.6392 12.6506 39.243 13.0527 39.7067L13.1367 39.8027L28.0047 24.9347V24.5747L13.1367 9.71875L13.0527 9.80275Z" fill="url(#paint0_linear_5219_3012)"/>
<path d="M32.9246 29.8931L28.0046 24.9371V24.5771L32.9246 19.6211L33.0326 19.6931L38.9246 23.0291C40.6046 23.9771 40.6046 25.5371 38.9246 26.4971L33.0566 29.8331L32.9246 29.8931Z" fill="url(#paint1_linear_5219_3012)"/>
<path d="M33.0686 29.8218L28.0046 24.7578L13.0526 39.7098C13.3917 40.0116 13.8257 40.1853 14.2794 40.2006C14.7331 40.216 15.1779 40.072 15.5366 39.7938L33.0686 29.8218Z" fill="url(#paint2_linear_5219_3012)"/>
<path d="M33.0686 19.6936L15.5366 9.73358C15.1802 9.45148 14.7358 9.30405 14.2815 9.31722C13.8272 9.33039 13.392 9.50331 13.0526 9.80558L28.0046 24.7576L33.0686 19.6936Z" fill="url(#paint3_linear_5219_3012)"/>
<path opacity="0.2" d="M32.9246 29.7148L15.5366 39.6148C15.1909 39.8757 14.7697 40.0169 14.3366 40.0169C13.9035 40.0169 13.4823 39.8757 13.1366 39.6148L13.0526 39.6988L13.1366 39.7948C13.4823 40.0557 13.9035 40.1969 14.3366 40.1969C14.7697 40.1969 15.1909 40.0557 15.5366 39.7948L33.0686 29.8228L32.9246 29.7148Z" fill="black"/>
<path opacity="0.12" d="M13.0527 39.5436C12.6673 39.0676 12.4784 38.4623 12.5247 37.8516V38.0316C12.4839 38.644 12.6866 39.2478 13.0887 39.7116L13.1727 39.6276L13.0527 39.5436Z" fill="black"/>
<path opacity="0.12" d="M38.9247 26.3178L32.9247 29.7138L33.0327 29.8218L38.9247 26.4858C39.2725 26.3388 39.5742 26.1006 39.798 25.7965C40.0219 25.4924 40.1596 25.1336 40.1967 24.7578C40.1217 25.0993 39.9675 25.4184 39.7465 25.6893C39.5256 25.9603 39.2441 26.1756 38.9247 26.3178Z" fill="black"/>
<path opacity="0.25" d="M15.5366 9.90062L38.9247 23.1966C39.244 23.3388 39.5255 23.5541 39.7465 23.8251C39.9674 24.0961 40.1216 24.4151 40.1967 24.7566C40.1596 24.3808 40.0219 24.022 39.798 23.7179C39.5742 23.4138 39.2724 23.1757 38.9247 23.0286L15.5366 9.73261C13.8686 8.77261 12.4886 9.56462 12.4886 11.4846V11.6646C12.5246 9.74461 13.8686 8.95262 15.5366 9.90062Z" fill="white"/>
</g>
<defs>
<linearGradient id="paint0_linear_5219_3012" x1="26.6847" y1="11.2067" x2="6.54868" y2="31.3428" gradientUnits="userSpaceOnUse">
<stop stop-color="#00A0FF"/>
<stop offset="0.01" stop-color="#00A1FF"/>
<stop offset="0.26" stop-color="#00BEFF"/>
<stop offset="0.51" stop-color="#00D2FF"/>
<stop offset="0.76" stop-color="#00DFFF"/>
<stop offset="1" stop-color="#00E3FF"/>
</linearGradient>
<linearGradient id="paint1_linear_5219_3012" x1="41.1206" y1="24.7571" x2="12.0926" y2="24.7571" gradientUnits="userSpaceOnUse">
<stop stop-color="#FFE000"/>
<stop offset="0.41" stop-color="#FFBD00"/>
<stop offset="0.78" stop-color="#FFA500"/>
<stop offset="1" stop-color="#FF9C00"/>
</linearGradient>
<linearGradient id="paint2_linear_5219_3012" x1="30.3206" y1="27.5178" x2="3.00861" y2="54.8178" gradientUnits="userSpaceOnUse">
<stop stop-color="#FF3A44"/>
<stop offset="1" stop-color="#C31162"/>
</linearGradient>
<linearGradient id="paint3_linear_5219_3012" x1="9.28461" y1="0.973582" x2="21.4766" y2="13.1656" gradientUnits="userSpaceOnUse">
<stop stop-color="#32A071"/>
<stop offset="0.07" stop-color="#2DA771"/>
<stop offset="0.48" stop-color="#15CF74"/>
<stop offset="0.8" stop-color="#06E775"/>
<stop offset="1" stop-color="#00F076"/>
</linearGradient>
<clipPath id="clip0_5219_3012">
<rect width="162" height="48" fill="white" transform="translate(0.524658 0.757812)"/>
</clipPath>
</defs>
</svg>
