<svg width="24" height="25" viewBox="0 0 24 25" fill="none" xmlns="http://www.w3.org/2000/svg">
<path d="M14.3639 3.17145L14.6823 2.79787L14.3639 3.17145C15.0847 3.78566 15.9808 4.15685 16.9247 4.23217L17.0475 4.24197C18.7608 4.3787 20.1213 5.73918 20.258 7.45247L20.2678 7.57527C20.3432 8.51921 20.7143 9.41534 21.3285 10.1361L21.4085 10.2298C22.5232 11.538 22.5233 13.462 21.4085 14.7702L21.3286 14.8639L21.7091 15.1882L21.3285 14.8639C20.7143 15.5847 20.3432 16.4808 20.2678 17.4247L20.258 17.5475C20.1213 19.2608 18.7608 20.6213 17.0475 20.758L16.9247 20.7678C15.9808 20.8432 15.0847 21.2143 14.3639 21.8285L14.2702 21.9085C12.962 23.0232 11.038 23.0233 9.72984 21.9085L9.63608 21.8286L9.31177 22.2091L9.63608 21.8285C8.91534 21.2143 8.01921 20.8432 7.07526 20.7678L6.95247 20.758C5.23918 20.6213 3.8787 19.2608 3.74197 17.5475L3.73217 17.4247C3.65685 16.4808 3.28566 15.5847 2.67145 14.8639L2.59155 14.7702C1.47675 13.462 1.47675 11.538 2.59155 10.2298L2.67145 10.1361L2.29787 9.81771L2.67145 10.1361C3.28566 9.41534 3.65685 8.51921 3.73217 7.57526L3.74197 7.45247C3.8787 5.73918 5.23918 4.3787 6.95247 4.24197L7.07526 4.23217C8.01921 4.15685 8.91534 3.78566 9.63608 3.17145L9.72984 3.09155C11.038 1.97675 12.962 1.97675 14.2702 3.09155L14.3639 3.17145Z" fill="#F6B100" stroke="#F6B100"/>
<path d="M16 9.5L10.5 15L8 12.5" stroke="#FFF8E5" stroke-width="1.5" stroke-linecap="round" stroke-linejoin="round"/>
</svg>
