<svg width="61" height="33" viewBox="0 0 61 33" fill="none" xmlns="http://www.w3.org/2000/svg">
<rect x="1" y="1.25781" width="59" height="31" rx="3.5" fill="#E6E7E7"/>
<rect x="1" y="1.25781" width="59" height="31" rx="3.5" stroke="white"/>
<path d="M34.1371 12.7578C32.4352 12.7578 30.9072 13.6434 30.9072 15.2684C30.9072 17.1399 33.6064 17.2677 33.6064 18.1989C33.6064 18.5915 33.1489 18.9476 32.3803 18.9476C31.2823 18.9476 30.4588 18.4546 30.4588 18.4546L30.1111 20.0979C30.1111 20.0979 31.0536 20.5178 32.3162 20.5178C34.1828 20.5178 35.6468 19.5957 35.6468 17.9342C35.6468 15.9622 32.9384 15.8344 32.9384 14.9671C32.9384 14.6567 33.3136 14.3189 34.0822 14.3189C34.9514 14.3189 35.6651 14.675 35.6651 14.675L36.0128 13.0865C36.0036 13.0865 35.2259 12.7578 34.1371 12.7578ZM18.5457 12.8765L18.5 13.1139C18.5 13.1139 19.2137 13.2417 19.8633 13.5064C20.696 13.8077 20.7509 13.9812 20.8973 14.5198L22.4253 20.39H24.4748L27.6132 12.8765H25.5728L23.5507 17.989L22.7272 13.6525C22.654 13.1595 22.2697 12.8765 21.7939 12.8765H18.5457ZM28.4367 12.8765L26.8355 20.39H28.7844L30.3765 12.8765H28.4367ZM39.2884 12.8765C38.8218 12.8765 38.5747 13.123 38.3917 13.5612L35.537 20.39H37.5774L37.9708 19.2488H40.4596L40.6975 20.39H42.5L40.9354 12.8765H39.2884ZM39.5538 14.9124L40.1576 17.7333H38.5381L39.5538 14.9124Z" fill="#1434CB"/>
</svg>
